<svg xmlns="http://www.w3.org/2000/svg" xmlns:xlink="http://www.w3.org/1999/xlink" xmlns:serif="http://www.serif.com/" viewBox="0 0 100 100" version="1.1" xml:space="preserve" style="" x="0px" y="0px" fill-rule="evenodd" clip-rule="evenodd" stroke-linejoin="round" stroke-miterlimit="2"><g><path d="M57.145,66.446c-0,0 3.649,2.889 4.4,7.65c0.522,3.314 -0.47,7.439 -4.682,12.189c-1.098,1.238 -0.985,3.136 0.254,4.235c1.239,1.098 3.137,0.984 4.235,-0.255c5.86,-6.608 6.847,-12.493 6.119,-17.104c-1.123,-7.126 -6.616,-11.43 -6.616,-11.43c-1.301,-1.024 -3.189,-0.799 -4.213,0.502c-1.024,1.301 -0.798,3.189 0.503,4.213Zm-9.93,1.168c-0,0 1.715,4.326 -0.015,8.825c-1.204,3.132 -4.126,6.208 -10.149,8.215c-1.57,0.524 -2.421,2.224 -1.897,3.795c0.524,1.57 2.224,2.421 3.795,1.897c8.378,-2.793 12.175,-7.396 13.851,-11.753c2.59,-6.733 -0.015,-13.207 -0.015,-13.207c-0.614,-1.537 -2.362,-2.286 -3.899,-1.671c-1.537,0.614 -2.286,2.362 -1.671,3.899Zm17.946,-7.145c-0,0 4.604,0.677 7.635,4.425c2.11,2.609 3.313,6.678 2.04,12.897c-0.332,1.622 0.715,3.208 2.338,3.54c1.622,0.332 3.208,-0.715 3.54,-2.337c1.771,-8.653 -0.317,-14.243 -3.253,-17.872c-4.536,-5.61 -11.445,-6.591 -11.445,-6.591c-1.639,-0.236 -3.161,0.902 -3.397,2.541c-0.236,1.639 0.903,3.161 2.542,3.397Zm-27.13,3.192c-0,-0 -0.677,4.604 -4.425,7.635c-2.609,2.11 -6.678,3.313 -12.897,2.04c-1.622,-0.332 -3.208,0.715 -3.54,2.338c-0.332,1.622 0.715,3.208 2.337,3.54c8.653,1.771 14.243,-0.317 17.872,-3.253c5.61,-4.536 6.591,-11.445 6.591,-11.445c0.236,-1.639 -0.902,-3.161 -2.541,-3.397c-1.639,-0.236 -3.161,0.903 -3.397,2.542Zm-5.977,-8.016c-0,-0 -2.889,3.649 -7.65,4.4c-3.314,0.522 -7.439,-0.47 -12.189,-4.682c-1.238,-1.098 -3.136,-0.985 -4.235,0.254c-1.098,1.239 -0.984,3.137 0.255,4.235c6.608,5.86 12.493,6.847 17.104,6.119c7.126,-1.123 11.43,-6.616 11.43,-6.616c1.024,-1.301 0.799,-3.189 -0.502,-4.213c-1.301,-1.024 -3.189,-0.798 -4.213,0.503Zm37.06,-4.36c0,0 4.326,-1.715 8.825,0.015c3.132,1.204 6.208,4.126 8.215,10.149c0.524,1.57 2.224,2.421 3.795,1.897c1.57,-0.524 2.421,-2.224 1.897,-3.795c-2.793,-8.378 -7.396,-12.175 -11.753,-13.851c-6.733,-2.59 -13.207,0.015 -13.207,0.015c-1.537,0.614 -2.286,2.362 -1.671,3.899c0.614,1.537 2.362,2.286 3.899,1.671Zm-38.228,-5.57c-0,-0 -4.326,1.715 -8.825,-0.015c-3.132,-1.204 -6.208,-4.126 -8.215,-10.149c-0.524,-1.57 -2.224,-2.421 -3.795,-1.897c-1.57,0.524 -2.421,2.224 -1.897,3.795c2.793,8.378 7.396,12.175 11.753,13.851c6.733,2.59 13.207,-0.015 13.207,-0.015c1.537,-0.614 2.286,-2.362 1.671,-3.899c-0.614,-1.537 -2.362,-2.286 -3.899,-1.671Zm3.953,-9.184c0,-0 -4.604,-0.677 -7.635,-4.425c-2.11,-2.609 -3.313,-6.678 -2.04,-12.897c0.332,-1.622 -0.715,-3.208 -2.338,-3.54c-1.622,-0.332 -3.208,0.715 -3.54,2.337c-1.771,8.653 0.317,14.243 3.253,17.872c4.536,5.61 11.445,6.591 11.445,6.591c1.639,0.236 3.161,-0.902 3.397,-2.541c0.236,-1.639 -0.903,-3.161 -2.542,-3.397Zm33.107,4.824c0,0 2.889,-3.649 7.65,-4.4c3.314,-0.522 7.439,0.47 12.189,4.682c1.238,1.098 3.136,0.985 4.235,-0.254c1.098,-1.239 0.984,-3.137 -0.255,-4.235c-6.608,-5.86 -12.493,-6.847 -17.104,-6.119c-7.126,1.123 -11.43,6.616 -11.43,6.616c-1.024,1.301 -0.799,3.189 0.502,4.213c1.301,1.024 3.189,0.798 4.213,-0.503Zm-5.977,-8.016c0,0 0.677,-4.604 4.425,-7.635c2.609,-2.11 6.678,-3.313 12.897,-2.04c1.622,0.332 3.208,-0.715 3.54,-2.338c0.332,-1.622 -0.715,-3.208 -2.337,-3.54c-8.653,-1.771 -14.243,0.317 -17.872,3.253c-5.61,4.536 -6.591,11.445 -6.591,11.445c-0.236,1.639 0.902,3.161 2.541,3.397c1.639,0.236 3.161,-0.903 3.397,-2.542Zm-19.114,-2.785c0,-0 -3.649,-2.889 -4.4,-7.65c-0.522,-3.314 0.47,-7.439 4.682,-12.189c1.098,-1.238 0.985,-3.136 -0.254,-4.235c-1.239,-1.098 -3.137,-0.984 -4.235,0.255c-5.86,6.608 -6.847,12.493 -6.119,17.104c1.123,7.126 6.616,11.43 6.616,11.43c1.301,1.024 3.189,0.799 4.213,-0.502c1.024,-1.301 0.798,-3.189 -0.503,-4.213Zm9.93,-1.168c0,-0 -1.715,-4.326 0.015,-8.825c1.204,-3.132 4.126,-6.208 10.149,-8.215c1.57,-0.524 2.421,-2.224 1.897,-3.795c-0.524,-1.57 -2.224,-2.421 -3.795,-1.897c-8.378,2.793 -12.175,7.396 -13.851,11.753c-2.59,6.733 0.015,13.207 0.015,13.207c0.614,1.537 2.362,2.286 3.899,1.671c1.537,-0.614 2.286,-2.362 1.671,-3.899Z"></path></g></svg>