<svg xmlns="http://www.w3.org/2000/svg" xmlns:xlink="http://www.w3.org/1999/xlink" version="1.1" x="0px" y="0px" viewBox="0 0 100 100" enable-background="new 0 0 100 100" xml:space="preserve"><g><path d="M34.368,30.065c-0.422,0-0.844,0-1.238,0.028c-3.318,0.283-6.807,1.528-10.547,4.386c-0.395,0.226-0.506,0.792-0.254,1.16   c0.281,0.368,0.873,0.424,1.182,0.113c7.116-5.433,12.741-4.697,18.451-2.604c5.709,2.094,11.39,5.772,18.084,5.858   c0.422,0.027,0.815-0.368,0.815-0.793c0-0.396-0.366-0.792-0.788-0.792c-6.131-0.085-11.643-3.594-17.578-5.772   C39.908,30.688,37.208,30.037,34.368,30.065L34.368,30.065z M76.443,36.291c-0.197,0.028-0.366,0.113-0.479,0.254   c-5.963,5.858-10.941,8.009-15.892,8.065c0,0,0,0-0.027,0c-6.104-0.085-11.616-3.565-17.55-5.744s-12.403-2.943-19.913,2.802   c-0.395,0.226-0.506,0.792-0.254,1.16c0.281,0.367,0.873,0.424,1.182,0.113c7.116-5.434,12.741-4.697,18.451-2.576   c5.709,2.095,11.39,5.744,18.084,5.83c5.428-0.029,10.885-2.49,17.016-8.518C77.568,37.196,77.09,36.206,76.443,36.291   L76.443,36.291z M16.422,42.572c-0.027,0-0.084,0-0.112,0c-0.196,0.057-0.394,0.17-0.507,0.34   c-1.096,1.528-1.574,3.057-1.518,4.443c0.084,1.357,0.73,2.547,1.799,3.311c2.11,1.528,5.57,1.443,9.197-0.85   c6.582-4.216,11.926-3.197,17.383-1.074c5.484,2.122,10.968,5.489,17.381,5.574c5.428-0.028,10.885-2.462,17.016-8.517   c1.969-1.924,4.304-1.67,5.766-0.48c0.731,0.565,1.21,1.386,1.294,2.291c0.085,0.877-0.196,1.896-1.181,3   c-0.254,0.312-0.226,0.876,0.084,1.16c0.31,0.255,0.844,0.227,1.125-0.085c1.182-1.358,1.688-2.858,1.547-4.245   c-0.112-1.357-0.844-2.547-1.885-3.395c-2.024-1.642-5.372-1.84-7.847,0.622c-5.963,5.857-10.941,8.007-15.892,8.036   c0,0,0,0-0.027,0c-5.851-0.085-11.167-3.253-16.819-5.46c-5.654-2.18-11.757-3.283-18.789,1.244   c-3.262,2.038-6.019,1.925-7.425,0.906c-0.675-0.51-1.097-1.217-1.125-2.15c-0.056-0.906,0.281-2.066,1.21-3.396   C17.492,43.365,17.042,42.515,16.422,42.572L16.422,42.572z M76.443,52.307c-0.197,0.028-0.366,0.112-0.479,0.254   c-5.963,5.857-10.941,8.037-15.892,8.065c0,0,0,0-0.027,0c-6.104-0.085-11.616-3.565-17.55-5.745   c-5.935-2.179-12.403-2.914-19.913,2.802c-0.395,0.227-0.506,0.82-0.254,1.16c0.281,0.368,0.873,0.425,1.182,0.113   c7.116-5.433,12.741-4.669,18.451-2.575c5.709,2.122,11.39,5.744,18.084,5.829c5.428-0.028,10.885-2.462,17.016-8.518   C77.568,53.24,77.09,52.222,76.443,52.307L76.443,52.307z M76.471,60.031c-0.027,0-0.084,0-0.112,0.028   c-0.141,0.028-0.281,0.113-0.394,0.227c-5.963,5.857-10.941,8.008-15.892,8.064c0,0,0,0-0.027,0   c-3.966-0.057-7.707-1.528-11.448-3.169c-3.768-1.67-7.537-3.48-11.644-4.047c-0.394-0.057-0.844,0.283-0.872,0.68   c-0.057,0.424,0.281,0.849,0.676,0.905c3.797,0.537,7.425,2.264,11.222,3.934c3.796,1.641,7.706,3.226,12.066,3.282   c5.428-0.028,10.885-2.462,17.016-8.518C77.568,60.993,77.146,59.975,76.471,60.031L76.471,60.031z"></path></g></svg>