<svg xmlns="http://www.w3.org/2000/svg" xmlns:xlink="http://www.w3.org/1999/xlink" version="1.1" x="0px" y="0px" viewBox="0 0 100 100" enable-background="new 0 0 100 100" xml:space="preserve"><g><path fill-rule="evenodd" clip-rule="evenodd" d="M74.427,22.867c-0.433,1.4-0.583,2.784-0.45,4.15s0.033,3.167-0.3,5.4   c-0.4,2.666-0.6,4.466-0.6,5.399v1.7c3.333-3.9,6.583-8.75,9.75-14.55c0.367-0.566,0.65-0.934,0.85-1.101   c0.367-0.3,0.784-0.316,1.25-0.05c0.7,0.267,1.267,0.233,1.7-0.1c0.267-0.2,0.6-0.617,1-1.25c0.233-0.434,0.55-1.066,0.95-1.9   c0.5-0.7,1.083-1.133,1.75-1.3c0.633-0.134,1.216,0.033,1.75,0.5c0.8,0.7,1.216,1.366,1.25,2c0.066,0.634-0.267,1.333-1,2.1   l-2.85,2.851c0.633,1.066,1.816,2.116,3.55,3.149c1.167,0.667,1.8,1.217,1.9,1.65c0.167,0.467-0.116,1.25-0.85,2.35   c-1.9,2.667-3.3,4.684-4.2,6.051c-1.533,2.267-2.35,3.466-2.45,3.6c-0.9,1.4-1.533,2.717-1.9,3.95c-0.2,0.633-0.566,0.816-1.1,0.55   c-0.433-0.167-0.533-0.55-0.3-1.15c1.3-2.767,2.15-4.416,2.55-4.949l4.1-6.5c0.534-0.867,0.8-1.5,0.8-1.9   c-0.1-0.7-0.317-1.083-0.65-1.15c-0.233-0.199-0.6-0.066-1.1,0.4c-0.967,1.134-1.9,2.616-2.8,4.45c-0.966,2.1-1.716,3.666-2.25,4.7   c-1,1.933-1.683,3.149-2.05,3.649l-10.95,16.65c-0.433,0.566-0.55,1.2-0.35,1.899c0.534,2.233,0.733,5,0.6,8.301l-0.4,8.35   c0,1.066-0.733,1.866-2.2,2.4c-1.066,0.433-2.383,0.716-3.95,0.85c-1.8,0.1-3.133,0.184-4,0.25l-11.1,0.8   c-4.367,0.3-8.05,0.767-11.05,1.4c-7.2,1.5-14.233,1.267-21.1-0.7c-1.6-0.434-2.617-0.917-3.05-1.45c-0.4-0.533-0.7-1.649-0.9-3.35   c-0.267-2.033-0.333-4.8-0.2-8.3c0.2-4.167,0.25-6.967,0.15-8.4c0.1-1.233,0.15-2.134,0.15-2.7c0.033-1.133-0.267-2.017-0.9-2.649   c-0.2-0.2-0.2-0.517,0-0.95c0.9-1.367,1.35-3.017,1.35-4.95c-0.267-2.3-0.4-4-0.4-5.1c-0.133-5.9,0.184-12.034,0.95-18.4   c0.267-2.5,0.033-5.283-0.7-8.35c-0.2-0.934-0.15-1.567,0.15-1.9c0.233-0.3,0.783-0.5,1.65-0.6c3.9-0.334,9.667-1.101,17.3-2.301   c6.3-0.8,10.817-1.283,13.55-1.449c5.066-0.467,9.617-0.601,13.65-0.4c3.2,0.1,6.967,1.217,11.3,3.35   C74.444,19.001,75.16,20.668,74.427,22.867z M73.177,13.817c1.167-0.1,2.384,0.351,3.65,1.351c1.3,1,1.95,1.949,1.95,2.85   c-0.033,0.434-0.35,0.7-0.95,0.8c-0.567,0.101-1.05-0.116-1.45-0.649L73.177,13.817z M89.627,23.218   c-0.633,0.533-0.9,1.05-0.8,1.55c0-0.066,0.183-0.267,0.55-0.6C89.677,23.935,89.76,23.617,89.627,23.218z M58.927,16.567   c-7.7,0.2-12.933,0.45-15.7,0.75c-3.267,0.267-7.317,0.816-12.15,1.65c-5.333,0.967-9.35,1.649-12.05,2.05   c-0.833,0.1-1.383,0.316-1.65,0.65c-0.3,0.399-0.433,1.017-0.4,1.85c0.066,0.434,0.017,1.616-0.15,3.55   c-0.067,1.467,0.066,2.601,0.4,3.4c0.433,0.967,0.433,2.033,0,3.2c-0.533,1.5-0.8,2.416-0.8,2.75c0,0.3-0.05,0.75-0.15,1.35   c0,0.533,0.184,0.967,0.55,1.3c0.4,0.033,0.966-0.233,1.7-0.8c0.667-0.6,1.317-0.8,1.95-0.6c-0.667,1.166-1.434,2.05-2.3,2.649   c-1.7,1.2-2.216,2.8-1.55,4.8c0.6-0.133,1.434-0.666,2.5-1.6c1-0.833,1.967-1.3,2.9-1.4c-0.466,0.867-1.267,1.817-2.4,2.851   c-1.233,1.166-2.017,2-2.35,2.5c-0.667,0.934-1,2.066-1,3.399c0.034,0.801,0.15,2.017,0.35,3.65c0.667-0.333,1.633-1.05,2.9-2.15   c1.2-1.033,2.25-1.716,3.15-2.05c-0.466,1-1.15,1.967-2.05,2.9c-0.267,0.3-1.033,1.033-2.3,2.2c-1.9,1.8-2.483,4.116-1.75,6.949   c0.867-0.733,2.15-1.816,3.85-3.25c1.467-1.166,2.784-2.116,3.95-2.85c0.133,0.566-0.066,1.116-0.6,1.65   c-1.1,1.1-1.917,1.916-2.45,2.449c-1.034,0.967-1.95,1.733-2.75,2.301c-1.3,0.966-2.067,2.149-2.3,3.55   c-0.2,1.033-0.1,2.517,0.3,4.45c1.1-0.967,2.7-2.45,4.8-4.45c1.867-1.667,3.55-2.95,5.05-3.851c0.034,0.634-0.116,1.167-0.45,1.601   c-0.033,0.033-0.35,0.35-0.95,0.95l-7.75,7.6c-1.466,1.4-1.65,2.884-0.55,4.45c5.433-4.934,10.167-8.417,14.2-10.45   c-0.233,0.667-0.633,1.25-1.2,1.75c-0.7,0.5-1.217,0.866-1.55,1.1c-2.933,2.233-5.883,4.717-8.85,7.45   c-0.833,0.667-1.633,1.517-2.4,2.55c-0.6,0.767-0.4,1.684,0.6,2.75c0.333,0.467,0.684,0.601,1.05,0.4   c0.2-0.167,0.517-0.434,0.95-0.8l1.65-1.351c5.134-4.066,9.167-6.899,12.1-8.5c-1.2,1.634-3.283,3.601-6.25,5.9   c-3.233,2.434-5.483,4.384-6.75,5.85c1.067,0.233,2.333,0.551,3.8,0.95c0.867,0.134,1.4,0.033,1.6-0.3   c0.733-1.233,1.934-2.4,3.6-3.5c2.567-1.8,3.934-2.783,4.1-2.95c3-2.666,5.767-4.649,8.3-5.95c-1.4,1.867-3.633,4.017-6.7,6.45   c-3.7,3-6.117,5.05-7.25,6.15c3.566,0.833,6.633,0.033,9.2-2.4c1.967-1.866,4.65-4.133,8.05-6.8c0.133-0.1,0.4-0.333,0.8-0.7   c0.4-0.267,0.784-0.25,1.15,0.05c-0.8,1.167-2.3,2.7-4.5,4.601c-2.233,1.934-3.816,3.566-4.75,4.899c1.733,0,2.8-0.033,3.2-0.1   c1.067-0.167,1.9-0.6,2.5-1.3c1.167-1.467,3.217-3.334,6.15-5.601c0.7-0.699,1.25-1.149,1.65-1.35c0.767-0.467,1.617-0.7,2.55-0.7   c-3.3,3.4-5.783,5.9-7.45,7.5c1.133,0.3,2.434,0.334,3.9,0.101c0.867-0.2,2.15-0.5,3.85-0.9c-0.233-0.767-0.333-1.2-0.3-1.3   c0.3-2.066,0.45-3.55,0.45-4.45c-0.033-1.6-0.45-3.033-1.25-4.3c-0.3-0.467-0.35-0.917-0.15-1.351c0.2-0.433,0.55-0.8,1.05-1.1   c1.3-0.733,2.483-2.116,3.55-4.15c2.3-4.233,5.184-8.583,8.65-13.05l2.75-4.1c1.434-2.101,2.15-4.384,2.15-6.851   c-0.066-1.267-0.1-2.216-0.1-2.85c0.066-1.066,0.183-1.967,0.35-2.7c0.467-1.767,0.667-4.033,0.6-6.8c-0.033-3.934-0.033-6.2,0-6.8   c0.167-1.566-0.483-2.533-1.95-2.9c-3.367-1.133-5.15-1.717-5.35-1.75C62.377,16.784,60.527,16.534,58.927,16.567z M59.127,10.718   c-1.267-0.233-2.85-0.45-4.75-0.65c-2.133-0.2-3.733-0.366-4.8-0.5c2-0.934,4.867-1.149,8.6-0.649   c1.167,0.133,2.95,0.366,5.35,0.699c2.1,0.267,3.9,0.317,5.4,0.15c1.134-0.1,1.667,0.35,1.6,1.35c-0.1,0.567-0.683,0.801-1.75,0.7   C64.944,11.584,61.727,11.218,59.127,10.718z M58.127,31.418c0.033,0.366-0.083,0.683-0.35,0.949c-0.3,0.233-0.617,0.317-0.95,0.25   c-1.633-0.233-3.833-0.25-6.6-0.05c-3.167,0.2-5.4,0.25-6.7,0.15c0.2-0.8,0.567-1.233,1.1-1.3l12.1-0.75   C57.561,30.567,58.027,30.817,58.127,31.418z M54.177,47.768c-0.4,1-0.883,1.384-1.45,1.15c-1.6-0.5-3.667-0.617-6.2-0.351   c-3.233,0.334-5.283,0.467-6.15,0.4c-0.767,0-1.35-0.033-1.75-0.101c-0.167,0-0.283-0.149-0.35-0.449   c-0.267-0.4-0.133-0.667,0.4-0.801l3.1-0.399c2.333-0.101,5.817-0.233,10.45-0.4C53.293,46.718,53.944,47.034,54.177,47.768z    M85.427,30.067c-0.667,0.267-1.15,0.417-1.45,0.45c-0.633,0-0.9-0.25-0.8-0.75c-1.267,0.7-2.333,1.833-3.2,3.4   c-0.967,1.899-1.733,3.283-2.3,4.149c-0.066,0.134,0.017,0.351,0.25,0.65c0.2,0.233,0.4,0.283,0.6,0.149   c0.867-0.5,2.217-1.183,4.05-2.05c1.733-0.833,3.1-1.733,4.1-2.7c-0.733,0.034-1.466,0.233-2.2,0.601   c-0.767,0.467-1.317,0.783-1.65,0.95c-0.434,0.233-0.75,0.366-0.95,0.399c-0.4,0.101-0.7-0.033-0.9-0.399   c-0.3-0.534,0-1.051,0.9-1.551c0.567-0.3,1.467-0.733,2.7-1.3c1.1-0.5,1.95-1.083,2.55-1.75   C86.594,29.951,86.027,29.867,85.427,30.067z M84.577,28.718c0.733-0.267,1.167-0.584,1.3-0.95c-1.267-0.6-2.017-0.8-2.25-0.6   c-0.233,0.199-0.333,1-0.3,2.399C83.527,29.234,83.944,28.951,84.577,28.718z M75.877,39.867c-0.967,1.467-1.65,2.567-2.05,3.301   c-0.767,1.199-1.083,2.366-0.95,3.5c0,0.533-0.383,0.949-1.15,1.25c-0.633,0.233-1.25,0.716-1.85,1.449   c-1.9,2.467-4.017,5.584-6.35,9.351c-2.633,4.366-4.6,7.616-5.9,9.75c1.067,0.8,2.717,1.517,4.95,2.149   c0.833,0.367,1.483,0.067,1.95-0.899c0.633-1.467,1.667-3.15,3.1-5.05c2.233-2.9,3.417-4.483,3.55-4.75   c0.6-0.867,2.1-3.217,4.5-7.051c1.8-2.933,3.35-5.25,4.65-6.949c1.066-1.4,1.533-2.317,1.4-2.75c-0.1-0.4-1-1.017-2.7-1.851   L75.877,39.867z M83.277,40.168c0.534-0.301,0.8-1.334,0.8-3.101c-1,0.167-2.417,0.884-4.25,2.15   C81.561,40.151,82.71,40.468,83.277,40.168z M80.627,59.367c-1.233,1.167-2.083,2.284-2.55,3.351c-0.4,0.767-0.983,1.083-1.75,0.95   c-0.733-0.2-0.883-0.634-0.45-1.301c0.867-1.267,1.65-2.3,2.35-3.1c0.133-0.167,1.183-1.167,3.15-3   c1.267-1.167,2.217-2.25,2.85-3.25c0.433-0.634,0.933-0.767,1.5-0.4c0.633,0.4,0.633,0.917,0,1.551   c-0.434,0.533-1.133,1.283-2.1,2.25C82.26,57.751,81.26,58.734,80.627,59.367z M74.977,69.218c0.2-0.5,0.566-0.667,1.1-0.5   c0.433,0.133,0.65,0.416,0.65,0.85c-0.033,0.267-0.1,0.667-0.2,1.2v1.1c0.067,0.534,0.05,0.917-0.05,1.15   c-0.167,0.333-0.517,0.483-1.05,0.45c-0.466-0.066-0.75-0.316-0.85-0.75c-0.067-0.134-0.1-0.517-0.1-1.15l0.1-1.05   C74.71,69.884,74.844,69.451,74.977,69.218z M56.527,73.218c-0.066,0.6-0.117,1.483-0.15,2.649c0,1.101,0.1,2.15,0.3,3.15   c1.5-1.366,2.567-2.417,3.2-3.15c1.033-1.166,1.767-2.366,2.2-3.6l-3.15-0.85c-0.966-0.2-1.6-0.184-1.9,0.05   C56.694,71.734,56.527,72.317,56.527,73.218z M70.127,64.918c-2.733,3.533-4.4,6.183-5,7.949c-0.533,1.601-1.533,2.917-3,3.95   c-1.533,1.167-2.4,1.851-2.6,2.05c-0.9,0.867-1.433,1.867-1.6,3h3.2c0.567,0.034,0.95,0,1.15-0.1c0.267-0.2,0.217-0.583-0.15-1.15   c-0.2-0.333-0.1-0.633,0.3-0.899c0.534-0.233,1.333-0.834,2.4-1.8c1.033-0.934,1.966-1.567,2.8-1.9   c-0.233,0.866-0.717,1.733-1.45,2.6c-0.833,1-1.417,1.733-1.75,2.2c1.9,0.4,3.184,0.351,3.85-0.149c0.733-0.434,1.15-1.5,1.25-3.2   c0.333-2.334,0.534-4.084,0.6-5.25V64.918z M57.477,90.768c-2.633,0.467-5.783,0.65-9.45,0.55c-4.167-0.233-7.3-0.399-9.4-0.5   c-0.8,0-1.367-0.066-1.7-0.2c-0.566-0.1-0.95-0.233-1.15-0.399c-0.433-0.167-0.583-0.5-0.45-1c0.1-0.533,0.367-0.783,0.8-0.75   c0.233,0.066,0.6,0.2,1.1,0.399c8.467,1.301,16.117,1.217,22.95-0.25c0.134,0,0.35-0.066,0.65-0.199   c0.933-0.134,1.466,0.183,1.6,0.949c0.3,0.834-0.083,1.301-1.15,1.4c-0.1,0-0.9-0.05-2.4-0.15L57.477,90.768z M67.277,88.918   c0.267,0.066,0.8,0.05,1.6-0.051c0.633,0.034,0.917,0.351,0.85,0.95c0,0.634-0.333,1-1,1.101c-0.833-0.067-1.417-0.101-1.75-0.101   c-0.3,0.066-0.65,0.05-1.05-0.05c-0.667-0.267-1-0.684-1-1.25c0.034-0.5,0.467-0.75,1.3-0.75L67.277,88.918z M25.827,31.468   c0-0.101,0.083-0.217,0.25-0.351c0.167-0.199,0.3-0.283,0.4-0.25c0.4,0,1.6-0.05,3.6-0.149c1.5-0.101,2.716-0.05,3.65,0.149   c0.767,0.2,1.05,0.601,0.85,1.2c-0.133,0.533-0.483,0.7-1.05,0.5c-0.4-0.133-0.917-0.184-1.55-0.149   c-0.733,0.033-1.167,0.033-1.3,0h-4.05C26.094,32.418,25.827,32.101,25.827,31.468z M23.627,47.468c0-0.4,0.2-0.7,0.6-0.9   c0.2-0.1,0.617-0.2,1.25-0.3c1.367-0.167,2.367-0.2,3-0.1c0.667,0.066,1.483,0.399,2.45,1c-0.167,0.633-0.716,0.949-1.65,0.949   h-3.8c-0.533,0.101-0.934,0.15-1.2,0.15C23.844,48.268,23.627,48.001,23.627,47.468z M48.927,60.668   c1.267-0.101,1.867,0.25,1.8,1.05c0,0.7-0.633,1.05-1.9,1.05h-4.45v0.15h-5.15c-0.7,0-1-0.284-0.9-0.851   c0.1-0.399,0.3-0.649,0.6-0.75c0.367-0.2,0.817-0.3,1.35-0.3L48.927,60.668z M24.277,59.418c0.4,0,1.017,0.033,1.85,0.1   c0.333,0.134,1.017,0.134,2.05,0c0.833,0.033,1.217,0.467,1.15,1.3c-0.034,0.601-0.45,0.9-1.25,0.9c-1-0.167-1.7-0.25-2.1-0.25   c-0.967,0.166-1.55,0.25-1.75,0.25c-0.667-0.066-0.983-0.467-0.95-1.2C23.277,59.784,23.61,59.418,24.277,59.418z M7.277,54.268   c-0.3,2.6-0.3,6.967,0,13.1c0,0.5,0.017,1.267,0.05,2.301c0.066,0.866,0.167,1.6,0.3,2.199c0.1,0.434,0.033,0.784-0.2,1.051   c-0.233,0.366-0.6,0.55-1.1,0.55c-0.833,0-1.2-0.5-1.1-1.5c0.066-1.4,0.017-4.066-0.15-8c-0.1-3.367-0.05-6.05,0.15-8.05   C5.327,54.718,6.01,54.168,7.277,54.268z M7.477,78.918c0.633,0.066,0.95,0.483,0.95,1.25c-0.167,1.899,0.333,3.283,1.5,4.149   c-1.466,0.634-2.566,0.4-3.3-0.7c-0.733-1.233-0.85-2.449-0.35-3.649C6.543,79.234,6.944,78.884,7.477,78.918z"></path></g></svg>