<?xml version="1.0" encoding="UTF-8"?>
<svg style="transform: scale(-2, 2);" width="1200pt" height="1200pt" version="1.1" viewBox="0 0 1200 1200" xmlns="http://www.w3.org/2000/svg">
 <path d="m894.05 554.66s-129.38 83.129-241.83-83.129c-90.008-132.33-127.79-138.07-175.78-138.07-47.988 0-69.828 25.391-95.145 69.223-25.316 43.832-75.57 18.516-75.57 18.516 0 58.113 66.051 66.578 66.051 66.578s-22.672 85.848 31.512 185.83c31.363 57.359 120.69 77.535 166.48 84.109-0.90625 13.754-1.2109 27.434-1.2109 41.188v23.652c-8.6914 1.5859-17.305 3.25-25.996 5.0625-15.566 3.25-31.137 6.8008-46.551 11.41l3.0234 26.602c16.098 0.98438 32.043 1.0586 47.914 0.67969s31.816-1.0586 47.609-2.1172l19.195-1.3594 1.3594-21.004c0.60547-14.207 1.0586-28.492 1.0586-42.699 0-12.848 0-25.695-1.1328-38.465 221.95-9.5234 279.01-206.01 279.01-206.01zm-450.93-102.55c-5.9219 0.019531-11.609-2.3164-15.805-6.4961-4.1992-4.1758-6.5586-9.8516-6.5664-15.773-0.007813-5.9219 2.3438-11.602 6.5312-15.789s9.8672-6.5352 15.789-6.5312c5.9219 0.007813 11.594 2.3711 15.773 6.5664 4.1758 4.1953 6.5117 9.8828 6.4922 15.805-0.019531 5.8867-2.3672 11.527-6.5273 15.688-4.1641 4.1641-9.8047 6.5117-15.688 6.5312z"/>
</svg>
