<?xml version="1.0" encoding="UTF-8"?>
<svg style="transform: scale(1.4);" width="1200pt" height="1200pt" version="1.1" viewBox="0 0 1200 1200" xmlns="http://www.w3.org/2000/svg">
 <g>
  <path d="m391.02 289.61c80.621 6.5 161.32 10.008 242.21 9.2461 59.875-0.5625 92.258 1.5312 139.91 42.195 38.105 32.516 52.469 66.145 52.457 116.27-0.011718 77.895-0.027343 155.79-0.039062 233.68-0.007812 41.238-0.015625 82.477-0.019531 123.71-0.007813 56.84 13.66 86.801-56.191 90.156-75.375 3.625-151.72 0.17578-227.18 0.15625-37.617-0.011719-84.422 7.3281-121.08-0.03125-8.9688-0.003906-17.938-0.003906-26.906-0.007812-6.8242-16.516-13.645-33.031-20.469-49.547-2.5391-13.895-0.71875-29.949-0.87109-44.055-0.89453-82.68-0.54687-165.39-0.82031-248.08-0.12109-36.754-0.24219-73.504-0.36328-110.26-0.13281-38.941-14.031-132.78 17.973-162.29 17.227-15.883-8.5156-41.527-25.691-25.691-24.359 22.457-27.078 46.285-28.98 77.723-3.8477 63.613 0.42969 129.2 0.64062 192.95 0.37109 112.2-11.91 232.87 3.8867 344.02 12.336 86.812 91.68 61.562 162.32 61.582 111.08 0.027344 239.22 18.586 346.7-12.895 7.6797-2.25 13.336-9.4453 13.336-17.516 0.019531-105.39 0.035156-210.77 0.054687-316.16 0.011719-65.711 22.543-174.25-15.191-232.26-23.113-35.535-82.844-94.77-127.05-101.62-50.051-7.7617-106.78 2.2695-157.76 1.3398-57.078-1.0391-114-4.3711-170.89-8.957-23.312-1.8828-23.188 34.461-0.003907 36.328z"/>
  <path d="m688.45 306.89c3.0586 20.766 6.1211 41.531 9.1797 62.301 2.0391 13.852 0.93359 36.082 10.504 47.25 9.9453 11.609 28.621 7.832 42.18 7.8242 21.855-0.015625 43.711-0.03125 65.566-0.046875 23.379-0.015625 23.418-36.348 0-36.332-15.027 0.011719-30.051 0.019531-45.078 0.03125-13.586 0.007812-30.34 2.7148-43.574-0.003907 3.6172 2.7812 7.2383 5.5664 10.855 8.3477-5.7266-12.965-5.1016-34.547-7.1445-48.414-2.4844-16.871-4.9727-33.746-7.457-50.617-3.3945-23.047-38.406-13.25-35.031 9.6602z"/>
  <path d="m462.81 680.53c29.621 50.797 44.762 112.12 113.26 86.48 29.445-11.02 49.566-33.625 72.398-53.996 35.027-31.25 71.426-49.039 112.05-71.59 20.445-11.352 2.1445-42.742-18.336-31.371-36.383 20.199-73.996 36.52-105.58 64.203-18.512 16.223-38.926 45.883-62.941 53.957-47.039 15.816-62.973-37.734-79.473-66.02-11.777-20.191-43.188-1.9219-31.375 18.336z"/>
 </g>
</svg>
