<svg xmlns="http://www.w3.org/2000/svg" viewBox="0 0 64 64" x="0px" y="0px"><g><path d="M51,57V14H44a3.009,3.009,0,0,1-3-3V4H12A3.009,3.009,0,0,0,9,7V57a3.009,3.009,0,0,0,3,3H48A3.009,3.009,0,0,0,51,57Zm-4-7H13V48H47Zm0-6H13V42H47Zm0-6H13V36H47Zm0-6H13V30H47Zm0-6H13V24H47Zm0-6H13V18H47Z"></path><path d="M55,7a3.009,3.009,0,0,0-3-3H44.41l8.3,8.29A1.033,1.033,0,0,1,53,13V57a4.924,4.924,0,0,1-1.03,3H52a3.009,3.009,0,0,0,3-3Z"></path><path d="M44,12h5.59L43,5.41V11A1,1,0,0,0,44,12Z"></path></g></svg>