<svg xmlns="http://www.w3.org/2000/svg" xmlns:xlink="http://www.w3.org/1999/xlink" xml:space="preserve" style="shape-rendering:geometricPrecision;text-rendering:geometricPrecision;image-rendering:optimizeQuality;" viewBox="0 0 0.309575 0.323378" x="0px" y="0px" fill-rule="evenodd" clip-rule="evenodd"><defs><style type="text/css">
   
    .fil0 {fill:black}
    .fil1 {fill:black;fill-rule:nonzero}
   
  </style></defs><g><path class="fil0" d="M0.0639913 0.236702c-0.0161494,-0.0473813 0.0038031,-0.0696605 0.0378381,-0.0900697 0.00248422,-0.00148817 -0.0074566,0.0328539 -0.0048149,0.031413 0.0127557,-0.00698023 0.00027165,-0.0341728 0.0639992,-0.060141 0.00193698,-0.000791329 -0.00387397,0.0234249 -0.00207478,0.0226218 0.0287595,-0.0473222 0.0146219,-0.00430309 0.0557473,-0.0495939 0.00324012,-0.00182675 -0.00433065,0.017047 -0.0011181,0.0151219 0.011677,-0.0213344 0.0242674,-0.0197242 0.0540544,-0.0521883 0.00233462,-0.0022795 -0.00268894,0.0203856 -0.000248028,0.0179683 0.0179171,-0.0321138 0.0192478,-0.0238816 0.0422003,-0.0718337 -0.00239367,0.0971405 -0.0227005,0.0969043 -0.0516608,0.128038 -0.001374,0.00231493 0.0230706,-0.0118699 0.0216178,-0.00958256 -0.0391215,0.0614717 -0.0567906,0.0408617 -0.072007,0.0565229 -0.00159053,0.00163777 0.0292004,-0.00356295 0.0275823,-0.00196454 -0.0719794,0.0710778 -0.0756368,0.034594 -0.105566,0.0492277 -0.00441727,0.00216139 0.0178856,0.0120983 0.0135116,0.0138817 -0.0274052,0.011177 -0.0433931,0.0187793 -0.0645622,0.0117833 -0.00383066,0.00392121 0.00934634,0.00714558 0.0145156,0.013925 -0.00151967,-0.000318894 -0.0159092,-0.00149998 -0.0156809,-0.00121652 0.00113384,0.0014173 0.00600386,0.0141691 0.00622039,0.0145274 0.000185037,0.000295272 -0.0101022,-0.0110943 -0.011618,-0.0118581 -0.000216533,-0.000110235 -0.0033661,0.017173 -0.00359444,0.0170588 -0.000122046,-5.90544e-005 -0.0030039,-0.0224682 -0.0048464,-0.0205037 -0.0195824,0.0208265 -0.0511923,0.0548694 -0.0625189,0.0602748 0.00646055,-0.0233265 0.0330389,-0.050586 0.0498104,-0.0671645 0.00126376,-0.00103542 -0.0187832,-0.0147754 -0.0198383,-0.0156297 7.08652e-005,-5.90544e-005 0.0174525,0.00273225 0.0190509,0.00259446 0.000519678,-0.000370074 -0.0105904,-0.0143069 -0.010181,-0.0138266 0.00228344,0.00268107 0.0125904,0.00540151 0.0133069,0.00437396 0.000299209,-0.00177557 0.000346452,-0.0137715 0.000417318,-0.0138266 0.00014173,-0.000114172 0.00709833,0.0227753 0.0104566,0.0200667zm0.0199289 -0.00216533c0.023791,-0.0210588 0.165557,-0.118034 0.188824,-0.149963 -0.0359326,0.0410664 -0.145841,0.0967232 -0.205765,0.157596 -0.0175155,0.0138108 -0.0374602,0.0324327 -0.0460427,0.0533222 0.00265745,0.00109841 0.050956,-0.0503143 0.0629835,-0.0609559z"></path><path class="fil1" d="M-0 0.322307c0.0719991,-0.00820068 0.0971759,-0.00811801 0.168214,-0.0433498 0.070444,-0.0349366 0.0968925,-0.0476766 0.103688,-0.033972 0.00335035,0.00675582 -0.0137439,0.0202714 -0.0145313,0.0287988 -0.00213777,0.0233422 0.0222753,0.0232477 0.0359011,0.0198895l0.00165352 0.00672432c-0.0219722,0.00541725 -0.0464679,-0.00513773 -0.0444443,-0.0272359 0.000696842,-0.00757471 0.0177006,-0.0200864 0.0152085,-0.0251139 -0.00508655,-0.0102558 -0.0289485,0.00465348 -0.0944122,0.0371216 -0.0757943,0.037594 -0.0938886,0.0405704 -0.171277,0.0371373z"></path></g></svg>