<?xml version="1.0" encoding="UTF-8"?>
<svg style="transform: scale(1.6);" width="1200pt" height="1200pt" version="1.1" viewBox="0 0 1200 1200" xmlns="http://www.w3.org/2000/svg">
 <path d="m738.55 297.71h-277.1c-90.309 0-163.74 73.43-163.74 163.74v277.09c0 90.309 73.43 163.74 163.74 163.74h277.09c90.309 0 163.74-73.43 163.74-163.74l0.003906-277.09c0-90.309-73.434-163.74-163.74-163.74zm-188.93 340.07c0 41.691-33.883 75.57-75.57 75.57-41.691 0-75.57-33.883-75.57-75.57v-75.57c0-41.691 33.883-75.57 75.57-75.57 10.203 0 20.152 2.0156 29.473 5.918 6.2969 2.7695 9.3203 10.203 6.6758 16.625-2.7695 6.4219-10.203 9.3203-16.5 6.6758-6.3008-2.6484-12.848-4.0312-19.648-4.0312-27.836 0-50.383 22.672-50.383 50.383v75.57c0 27.836 22.547 50.383 50.383 50.383 27.836 0 50.383-22.547 50.383-50.383v-25.191h-37.785c-6.9258 0-12.594-5.668-12.594-12.594 0-6.9258 5.668-12.594 12.594-12.594h50.383c6.9258 0 12.594 5.668 12.594 12.594zm75.57 62.973c0 6.9258-5.668 12.594-12.594 12.594-6.9258 0-12.594-5.668-12.594-12.594l-0.003906-201.52c0-6.9258 5.668-12.594 12.594-12.594s12.594 5.668 12.594 12.594zm176.34-125.95c6.9258 0 12.594 5.668 12.594 12.594s-5.668 12.594-12.594 12.594h-88.168v100.76c0 6.9258-5.668 12.594-12.594 12.594s-12.594-5.668-12.594-12.594l-0.003906-201.52c0-6.9258 5.668-12.594 12.594-12.594h100.76c6.9258 0 12.594 5.668 12.594 12.594s-5.668 12.594-12.594 12.594h-88.168v62.977z"/>
</svg>
