<?xml version="1.0" encoding="UTF-8"?>
<svg width="1200pt" height="1200pt" version="1.1" viewBox="0 0 1200 1200" xmlns="http://www.w3.org/2000/svg">
 <path d="m545.34 775.46c-1.1172 9.1602-3.332 18.152-6.5938 26.785-1.8633 4.9297-3.2969 10.012-4.2852 15.191-2.9961 14.219-8.2891 27.855-15.668 40.371-1.3438 1.7695-2.2188 3.8477-2.543 6.0469-1.7656 8.1797-2.8711 16.488-3.3047 24.848 0.53516 3.1211-0.45312 6.3047-2.6602 8.5742-1.1016 1.3633-1.8906 2.9492-2.3125 4.6484-2.707 7.668-9.2891 13.316-17.281 14.832-2.8672 0.99609-5.8672 1.5586-8.9023 1.6602-3.9336-0.14844-7.8359 0.75781-11.297 2.6328-5.3789 3.1875-11.621 4.6094-17.852 4.0547-4.3008 2.6484-7.3945 0.58984-10.125-2.6523-1.7617-2.0898-3.5195-1.3477-5.8008-0.74219-3.8711 1.0312-4.5977 0.12109-6.4766-2.7109-2.6641-5.1523-3.2773-11.125-1.7227-16.715 3.207-3.0117-0.13281-6.5742 0.82812-9.9258 0.82422-3.4297 1.1797-6.9531 1.0586-10.477 0.10156-16.461 0.10156-32.918 0-49.379 0.56641-4.4219-0.085938-8.9141-1.8789-12.996-2.3242-4.043 2.3047-7.4609 1.6133-11.473-0.58203-3.3711-3.2812-6.3984-1.4219-10.176v-0.003906c0.82031-1.5547 1.3633-3.2422 1.6016-4.9844 0.44141-4.4062 0.41797-8.8555 0.89062-13.254 0.40625-3.7969 1.5664-7.5312 1.8125-11.336-0.085937-6.1875 0.75391-12.352 2.5-18.289 0.53125-2.6172 0.59375-5.3086 0.19531-7.9531-0.019532-1.3203-0.41797-2.9023-2.0664-2.4922l-0.003906 0.003907c-8.3555 1.1172-16.793 1.5234-25.219 1.2188-4.8672-0.1875-9.7305 0.46484-14.379 1.9219-3.4531 0.77734-7.0039 1.0156-10.527 0.70703-7.5156-0.75391-15.102 0.046875-22.289 2.3516-7.9492 0.10156-15.863 1.0938-23.594 2.957-8.6406 1.5117-17.383 2.3984-25.922 4.543v-0.003906c-3.5 0.50391-7.0273 0.78906-10.562 0.84766-7.8047 0.91797-11.688-5.0195-16.414-9.3477-1.4414-3.2266-1.5234-6.8945-0.22266-10.18 0.57812-0.64062 1.3438-1.0859 2.1836-1.2734 7.3203-1.5859 14.738-2.6797 22.207-3.2734 9.5977-0.48828 19.113-2.6133 28.664-4.0352l6.5273-0.96484c0.87109-0.19922 1.7734-0.22656 2.6523-0.078126 5.5078 1.6094 9.9258-3.8164 15.535-2.1836 5.1406 1.4961 10.18-1.1562 15.336-1.0977l1.0195-0.82031-0.88672-0.84766-1.1641-0.48047c-11.121 0.019531-22.238 0.007813-33.355 0.17578-2.1914 0.10547-4.3555 0.53516-6.418 1.2773-3.3828 1.082-7.0195 1.082-10.402-0.007812-2.9766-0.75781-6.0156-1.2266-9.082-1.4062-7.9922-0.67578-10.914-3.2148-12.355-10.977-0.31641-1.7188-0.85547-3.4023-1.1172-5.1328-0.10547-0.71094 0.03125-2 0.42188-2.1641 4.8203-2.0391 8.957-5.9883 14.648-5.6445l-0.003906 0.003906c5.7344 0.054687 11.441-0.82422 16.895-2.5938 10.16-2.6719 20.664-3.7969 31.004-5.6602 10.34-1.8633 20.605-4.3438 30.965-6.1953 9.8281-2.4336 19.871-3.8945 29.984-4.3633 4.4453-0.03125 8.7852-1.3203 12.527-3.7188 4.0859-2.0742 6.5312-6.3984 6.1953-10.973-0.17969-3.9922 0.375-8.0312 0.039062-12.004-0.53516-6.3281 3.3516-11.789 2.7461-18.27-0.10156-6.1875 0.17188-12.375 0.82031-18.527-0.50391-5.5742-0.17969-11.191 0.96094-16.672 1.1055-6.1211 1.3438-12.363 0.71484-18.551 0.082031-5.7812 0.16016-11.562 0.13672-17.344-0.011718-2.7461-1.3477-4.1992-4.0273-4.1094l0.003907-0.003906c-7.0664-0.63281-14.188-0.070312-21.066 1.6641-2.5586 0.6875-5.2188 0.92969-7.8594 0.71875-33.363 0.097657-66.727 0.14844-100.09 0.15234-4.4375 0.36328-8.9023-0.26953-13.066-1.8477-2.5312-0.86719-5.2461-1.0703-7.8789-0.59375-7.4805-0.50781-14.906-1.6289-22.203-3.3477-3.25-0.15234-6.2734-3.1484-9.5977-4.293-4.4727-1.2344-7.3086-5.6211-6.6055-10.203 0.097656-2.7109-0.042969-5.1836 3.1758-6.5352 2.6484-1.1094-0.55469-3.7695 1.0469-5.7422 1.9258-2.3516-0.019532-3.8711-2.1016-5.1055l-0.39844-2.082c0.375-0.80078 1.0156-1.4492 1.8125-1.832 2.7656-1.3672 5.6211-2.543 8.5508-3.5117 14.586-4.832 29.539-8.4727 44.715-10.883 6.4883-0.80859 12.801-2.9453 19.234-4.2734 2.6172-0.39062 5.2539-0.63672 7.8945-0.73828 5.7656 0.32031 11.535-0.44922 17.012-2.2695 2.1406-0.60938 4.3828-0.80078 6.5938-0.55859 7.0859 0.48047 14.199-0.27344 21.027-2.2305 3.0391-0.66406 6.168-0.85156 9.2656-0.5625 4.4336 0.21484 8.8672-0.36328 13.098-1.707 3.0078-0.72656 6.1094-1.0039 9.1992-0.81641 6.1836 0.10547 12.355-0.62109 18.348-2.1562 4.8125-0.83984 9.707-1.0586 14.574-0.64844 5.6953-0.32812 8.1133-3.9492 7.1328-10.277-0.25391-1.6328-2.3242-3.4258-3.7969-2.8555-8.1719 1.8555-16.535 2.7695-24.914 2.7188-7.8711 1.1602-15.758 1.7344-23.594 2.7188-7.4609 0.35547-14.816 1.918-21.777 4.625-7.9453 0.31641-15.836 1.4062-23.566 3.2617-7.8594 0.69531-15.566 2.4062-23.594 2.4883-6.1641-0.16797-12.266-1.2773-18.09-3.2891-1.4961-0.44141-2.5898-2.2109-3.8633-3.375l3.3242-1.9727c4.4688-2.918 9.6406-4.5898 14.973-4.8359 1.75-0.11719 3.4609-0.59766 5.0156-1.4102 4.2734-2.3672 9.0469-3.6836 13.93-3.8438 1.7578-0.14453 3.4648-0.65234 5.0156-1.4922 8.832-2.6445 17.816-4.7539 26.902-6.3086 7.1992-1.9414 14.758-2.3125 21.879-4.707 0.80859-0.35547 1.6836-0.54297 2.5664-0.55078 8.8398 0.054687 17.656-0.92969 26.266-2.9297 7.7656-1.5977 15.645-2.6133 23.562-3.0469 2.7305-0.50391 4.7617-2.8086 4.918-5.582-0.12109-9.7695 2.9492-19.113 3.3125-28.922 0.43359-11.719 2.1875-23.414 2.6367-35.215 0.76172-6.9922 1.9883-13.93 3.6719-20.758 0.23047-1.6523 0.25781-3.3281 0.089843-4.9883-0.14453-2.1602-1.4336-4.8594-0.55859-6.3164 1.8633-3.0898 5.6328-2.3828 8.5352-1.7188 9.5156 2.1445 18.168 7.082 24.855 14.176 2.8906 3.3359 4.4453 7.6211 4.3711 12.031 0.84766 6.4727 2.2656 12.855 4.2422 19.078l0.80859 1 1.4102-1.2773c0.19922-6.2227 0.15234-12.453 0.4375-18.672-0.011719-3.5273 0.46484-7.0352 1.418-10.43 1.2539-2.8594 1.0352-6.1523-0.58984-8.8242-0.87891-1.7969-0.92188-3.8867-0.11719-5.7188 0.80469-1.832 2.375-3.2188 4.293-3.7891 9.7969-1.1719 19.559 2.4414 26.238 9.7031 2.2031 3.2969 3.7305 6.9961 4.5 10.883 0.75391 2.0547 1.2266 4.2109 1.8867 6.3047l0.77344 1.0039c0.77344-0.37109 1.8047-0.70312 2.1602-1.3711v0.003907c0.94141-1.4609 1.5469-3.1094 1.7734-4.832 1.582-9.5664 2.668-19.211 3.2539-28.891-0.19531-2.4492 1.6797-3.5312 4.3633-3.8906 6.2266 0.066406 12.281 2.0391 17.355 5.6523 2.3633 4.5977 6.6172 7.7969 7.5938 13.625 1.4219 6.4453 2.168 13.02 2.2227 19.621-0.21484 5.3281 0.10547 10.672-0.019531 16.008v-0.003906c0.75 6.6289 0.32422 13.336-1.2578 19.812-2.2656 5.8672-0.32422 12.332-3.3242 18.184-1.7617 3.4297 0.53906 6.0625 4.4648 6.0625h-0.003906c8.8711 0.70312 17.793 0.51562 26.625-0.56641 14.898-2.2812 29.996-2.9883 45.039-2.1055 11.582 0.03125 22.785-3.0234 34.309-2.8516l0.003906 0.003906c1.8516 0.074219 3.4609-1.2656 3.7227-3.1016 1.6094-6.8359 3.7773-13.582 4.8516-20.496 1.4805-9.5742 2.2109-19.266 3.1562-28.918h0.003907c0.007812-6.6289 0.69531-13.238 2.0586-19.727 0.96094-5.6953 1.2266-11.484 0.79297-17.242-0.51562-5.7539 0.16406-11.555 2.0039-17.035 0.72656-2.5742 0.89844-5.2734 0.5-7.918 0.46094-11.004 2.3398-21.902 5.5938-32.426 1.1055-4.5781 2.8594-4.9102 7.2461-1.9531 3.3242 2.2383 4.4297 2.1328 5.7422-1.5977 0.80469-2.2812 1.5391-4.1562 4.2109-4.2734 2.6758-0.11719 5.3516 0.12109 7.9961-0.13672h0.003906c6.3438-0.89062 12.492 2.6055 14.969 8.5117 2.6328 3.9844 4.4102 8.4727 5.2266 13.176 1.1094 6.0469 1.918 12.148 2.418 18.277 0.21875 2.3086 1.8945 4.2188 4.1562 4.7305 2.0781 0.63672 4.4102 0.42188 6.543 0.92969h0.003906c4.9805 0.79688 8.9336 4.6289 9.8828 9.582 1.3086 7.8242 3.8164 15.398 7.4375 22.457l0.71875 2.4492c-2.0078 3.9414 0.91406 7.6367 0.39453 11.473-0.23828 1.75 0.28906 3.8281-0.47656 5.2461v0.003906c-1.8008 4.5547-2.4805 9.4727-1.9805 14.348-0.13281 4.4062-0.71875 8.793-1.75 13.082-0.83984 5.2227-0.92188 10.543-0.24219 15.793 0.46484 3.0273 1.1094 6.0273 1.9297 8.9805 0.22656 1.8281 1.8398 3.1641 3.6797 3.043 3.5508 0.19141 7.1055 0.28906 10.664 0.28906 21.352 0 42.699-0.078126 64.051-0.046876 4.8555-0.21875 9.7109 0.35547 14.379 1.6953 4.7773 1.0469 9.6992 1.2734 14.551 0.66797 5.3555-0.89062 10.785 1.1133 14.281 5.2695 1.2773 1.6523 3.7305 2.3555 5.2422 3.8906v-0.003906c0.64844 1.0547 0.71484 2.3633 0.17969 3.4766-1.8398 3.6602-5.582 5.9688-9.6758 5.9727-3.9961-0.18359-8.0117-0.066406-12.008 0.027344h0.003906c-4.4219-0.24219-8.8516 0.35547-13.055 1.7539-3.4258 0.87109-6.9727 1.1719-10.5 0.89844-3.1094 0.125-6.2305 0-9.3398 0.09375-3.1133 0.09375-6.1953 0.19922-9.2734 0.55078-2.9258 0.33594-5.793 1.1719-8.7227 1.4609-3.5234 0.34766-7.0781 0.44141-10.621 0.48047-12.012 0.13281-24.02 0.32031-36.031 0.21875l0.003907-0.003907c-3.9922-0.046875-7.9141 1.0391-11.312 3.1328l-0.74609 1.0352 0.96484 0.75391c6.8516 1.5586 13.805 2.6289 20.805 3.1992 14.207-0.5 28.461-0.10156 42.691 0.12891h0.003907c5.7461-0.4375 11.52 0.22266 17.016 1.9492 3.8945 0.96094 7.9453 1.1055 11.902 0.42969 4.8984-0.23438 9.7539 1.0078 13.938 3.5664 4.9375 2.8711 9.8984 5.7305 14.629 8.918 1.75 1.1836 4.2852 3.6211 3.9844 4.9102h0.003906c-1.0508 2.3906-1.1055 5.1055-0.15234 7.5352-0.99219 0.52734-1.9805 1.4961-2.9805 1.5117-10.676 0.13672-21.352 0.10938-32.027 0.16016-4.4453 0.019531-8.8984 0-13.332 0.27344h0.003906c-1.2188 0.12891-2.3047 0.83203-2.9219 1.8945-0.089844 1.207 0.45703 2.3711 1.4414 3.0781 5.9766 2.7891 12.055 5.3711 18.145 7.8984 1.9648 0.81641 5.1133 0.26562 5.6836 2.6133h0.003906c0.88281 2.9805 0.88281 6.1523 0 9.1289-1.2227 3.9688-4.7617 6.7734-8.9023 7.0508-3.9883 0.32031-7.9961 0.27734-11.977-0.12891-2.6133-0.40234-4.7891-2.0469-6.293 1.6641-0.29297 0.72266-2.3789 0.95312-3.6523 0.99609-5.7734 0.17969-11.562 0.17188-17.344 0.34375-4.8438 0.019531-9.668 0.59766-14.375 1.7227-6.1211 1.1055-12.359 1.4023-18.555 0.88281-7.9688-0.23438-15.934 0.64062-23.66 2.6055-4.3828 1.1836-6.1953 2.9062-6.6094 7.1055l-0.28125 5.3281c0.25391 5.7578-0.41797 11.52-1.9922 17.062-0.70703 3.4805-0.92188 7.043-0.63672 10.582 0.10938 3.9922-0.43359 7.9727-1.6133 11.789-0.78906 2.9766-1.1094 6.0625-0.94922 9.1406 0.63672 8.3984-0.17578 16.844-2.3984 24.965-0.45703 2.1797-0.45312 4.4297 0.007812 6.6094-0.0625 0.89844 0.25391 1.7812 0.87109 2.4375s1.4766 1.0234 2.3789 1.0195c7.0391 0.94531 14.191 0.50781 21.062-1.2852l2.5078-0.4375c3.9297 3.1133 7.5703-0.19531 11.324-0.27344 10.672-0.22266 21.352-0.097656 32.027-0.10547 6.0664 3.0625 12.715 0.90625 19.07 2.0859 6.1758 0.875 12.43 1.0117 18.637 0.40625 7.9688-0.17578 15.848 1.6914 22.895 5.418 4.5508 2.75 9.5078 4.7695 14.688 5.9844 7.5156 0.97656 12.234 6.6953 18.031 10.52 1.4844 1.6562 2.1523 3.8867 1.8164 6.0859-0.33203 2.1992-1.6289 4.1367-3.5391 5.2773-4.3867 2.0742-9.1133 3.332-13.949 3.7109-4-0.19141-8.0078-0.12891-12 0.19531-9.1797 0.92188-18.332 2.1172-27.48 3.3242-0.5625 0.074219-1.2461 1.2109-1.3828 1.9453-0.17188 0.82813 0.039062 1.6875 0.57031 2.3438 2.7461 2.1953 5.7422 4.0586 8.9297 5.5391 6.4766 1.8906 11.648 6.7812 13.906 13.141 0.40234 1.8008 2.0508 3.0508 3.8945 2.9453 6.2305-0.375 9.5234 4.043 13.164 7.8711v0.003906c0.50391 0.64844 0.73047 1.4727 0.63281 2.2891-0.60938 4.5469-4.332 8.0352-8.9102 8.3516-11.941 0.10156-23.504 3.7578-35.594 3.1797-5.0195-0.23828-10.109 2.6836-15.559 2.3594-4.875-0.28906-9.7891-0.13281-14.676 0.054688h0.003907c-5.7539-0.49609-11.547 0.22266-17 2.1172-3.0234 0.71094-6.1523 0.89062-9.2383 0.53125-7.0547-0.007813-14.098 0.64844-21.031 1.9648-7.0391 0.98047-14.16 1.2422-21.254 0.78516-4.1406 0.13672-5.2461 1.4688-5.2578 5.8203h-0.003907c0.10938 1.3281 0.12109 2.6641 0.035157 3.9961-0.66016 4.3359 2.2148 8.2344 0.80078 12.922-0.71094 4.3594-0.95703 8.7812-0.73438 13.191-0.26953 2.1602-0.69531 4.2969-1.2734 6.3945-1.2109 5.5547-2.5977 11.082-3.5742 16.68-0.14062 1.7422 0.22266 3.4922 1.0469 5.0352 1.7969 3.6523 1.9336 7.8984 0.38281 11.664-3.8906 9.0273-3.3398 19.043-6.9258 28.102-0.61719 2.1484-0.75 4.4062-0.39062 6.6133 0.64844 5.7617-0.51172 11.582-3.3242 16.652-1.5586 2.7148-2.25 5.8438-1.9805 8.9609-0.19922 5.7891-2.1016 11.391-5.4609 16.109-0.66406 1.1016-1.6094 2.0078-2.7422 2.625-5.7773 3.3242-8.9453 10-15.605 12.172-3.0977 4.2266-5.8672 8.6875-8.2852 13.34-0.86719 3.2227-3.0586 5.9258-6.0273 7.4453-2.9727 1.5195-6.4453 1.707-9.5664 0.52344-5.3125-1.6289-11.238-1.5977-15.574-6.2852-1.6016-1.3203-2.7969-3.0664-3.4492-5.0352-1.957-8.1562-2.7891-16.543-2.4766-24.922 0.26563-14.23 0.13281-28.469 0.21094-42.703h0.003906c-0.34766-3.9883 0.15234-8.0078 1.4648-11.789 0.91016-2.043 1.0469-4.3516 0.37891-6.4844-1.8242-6.8594-2.5156-13.969-2.043-21.051 0.59375-8.8125 0.011718-17.668-1.7305-26.332-0.34766-0.98828 1.4062-2.793 1-3.668-2.3672-5.1094 2.4648-10.277-0.41016-15.324-2.8164-4.9453-0.6875-10.523-1.7305-15.727-0.48828-2.4336-1.7617-4.043-4.4492-3.7539-7.4062 0.78906-14.66-1.4258-22.199-0.21484v-0.003906c-7.0859 0.58203-14.203 0.72266-21.309 0.42969-2.1328 0.074218-4.2305 1.4766-6.3477 1.5117-2.1445-0.28125-4.2617-0.73828-6.3281-1.375-1.3164-0.25391-2.6758-0.23438-3.9844 0.0625-14.871 2.4727-29.973 3.3086-45.027 2.5-3.9766-0.11328-7.9453 0.41406-11.754 1.5625-3.4414 0.79688-6.9766 1.1445-10.508 1.0352-1.7617 0.085938-3.5195 0.28906-5.2539 0.60547-3.0703 1.0586-4.8086 4.2969-3.9961 7.4414 0.91406 2.4844 2.1016 4.8672 3.1211 7.3164 0.5 1.1953 1.6055 2.7852 1.2109 3.6055-3.4414 7.1406-0.67188 14.996-2.8125 22.219-0.20312 0.68359-1.2422 1.1211-1.8945 1.6641-0.4375-0.60547 0.27344-2.7188-1.7109-1.3125zm129.77-235.01v0.42188-0.003906c-5.7227-0.69922-11.516-0.59766-17.211 0.30469-7.3242 1.5938-14.816 2.3047-22.309 2.1133-2.6484-0.26953-5.3242-0.09375-7.9141 0.52344-6.3945 2.9102-13.32 0.81641-19.586 2.5391-6.8867 1.5156-13.914 2.3008-20.969 2.3398-1.7695 0.10547-3.5547-0.03125-5.3242 0.078125-3.7188-0.32031-7.0039 2.4102-7.3672 6.125-1.543 4.6016-2.4844 9.3789-2.8047 14.215-0.10156 5.2031-1.8438 10.352-2.3633 15.566l-0.003907 0.003907c-0.36719 4.8086-1.0664 9.5898-2.0938 14.305-1.4453 6.4219-2.4648 12.938-3.0469 19.496-1.0586 10.5-3.2422 20.824-4.2031 31.324-0.24609 2.6719 1.0078 2.9883 2.7695 2.9453v0.003906c3.5195 0.24609 7.0547-0.039062 10.488-0.85156 3.3711-1 6.8438-1.5977 10.355-1.7852 3.7812-1.0352 7.6367-1.7891 11.535-2.25 9.3828 0.42578 18.125-4.082 27.508-3.0352 0.87891 0.16016 1.7891 0.066407 2.6211-0.27344 5.3438-2.1758 11.137-3.0156 16.879-2.4375 1.7578 0.23828 3.5469 0.085937 5.2344-0.45703 4.4414-2.1055 9.4023-2.8555 14.266-2.1523 7.4844-0.16406 14.863-1.8086 21.703-4.8438 3.9688-1.1367 6.5352-4.9727 6.0664-9.0703-0.019532-9.3164-0.007813-18.637 0.15234-27.953-0.097657-5.3047 0.19922-10.609 0.88281-15.871 1.5898-12.152 2.1406-24.418 1.6523-36.668-0.011719-3.3125-1.3906-4.5664-4.9375-4.6328-3.9922-0.074218-7.9883-0.019531-11.98-0.019531zm-361.78 0.21094c4.6836 0.24609 9.3789-0.046874 13.996-0.875 4.2773-1.0352 8.668-1.543 13.07-1.5117 9.7539-0.17188 19.508-0.22656 29.266-0.36719 2.6367 0.35547 5.3203 0.19922 7.8945-0.46875 5.4883-1.7422 11.254-2.4531 17.004-2.0898 2.1992 0.21875 4.418 0.089844 6.5781-0.39062 6.3242-2.0312 12.988-2.7812 19.605-2.2031 3.0898 0.27734 6.2031 0.085938 9.2383-0.56641 5.9375-1.7383 12.129-2.4648 18.312-2.1523 2.1953 0.011719 4.3047-0.85937 5.8555-2.418 1.5508-1.5586 2.4102-3.6719 2.3867-5.8672-0.20312-2.0977-0.51562-4.1797-0.9375-6.2422-0.23437-2.4844-3.543-1.5312-5.5117-1.543v0.003906c-5.7344-0.625-11.527-0.42578-17.207 0.58984-11.305 1.9844-22.812 2.5859-34.266 1.7852-2.0586 0.11328-3.7383-1.3477-6.2148-0.92188-14.32 2.4688-28.945 0.38281-43.402 3.3555l0.003906 0.003906c-9.2109 0.22656-18.387 1.2305-27.43 2.9961-10.918 0.82422-21.723 2.7656-32.246 5.8008-5.3555 0.23438-10.395 2.6133-13.98 6.5977-0.58203 0.64844-0.97266 1.4414-1.1289 2.2969 0 0.45313 1.1016 1.2617 1.7422 1.3008 4.8672-0.26562 9.7461 0.023437 14.547 0.86328 7.4883 1.6641 15.16 2.3438 22.824 2.0234zm266.59-28.777c-0.20703 2.3711 1.1719 4.4922 2.6484 4.5156v-0.003906c3.4961 0.55859 7.0664 0.46875 10.531-0.25391 6.832-1.8359 13.914-2.5508 20.973-2.1133 5.2969 0.35156 10.621 0.15625 15.879-0.58594 8.6562-1.7188 17.477-2.4492 26.297-2.1719 3.5156 0.17578 7.0391-0.14844 10.465-0.96094 3.8047-1.1211 7.7656-1.6289 11.73-1.4961 3.5391-0.16406 7.1055 0.019532 10.625-0.33203 2.7148-0.36719 4.8906-2.4336 5.3945-5.1289 0.51172-1.2383 0.34375-2.6523-0.44141-3.7344-0.78516-1.0859-2.0742-1.6875-3.4062-1.5898-2.5703 0.26562-5.0781 1.4023-7.6445 1.5117-2.918 0.12891-6.2148-1.4102-8.7266-0.50391h-0.003906c-4.2695 1.1328-8.6953 1.5742-13.105 1.2969-6.6289-0.40625-13.285-0.11328-19.852 0.87109-6.0352 1.2344-12.168 1.9297-18.324 2.0781-2.1914-0.21094-4.4062-0.027344-6.5312 0.55078-4.5703 1.7031-9.4727 2.3398-14.328 1.8672-3.9844 0.21875-8.0195-0.023437-11.941 0.53516h0.003906c-3.0156 0.53516-5.9414 1.4961-8.6875 2.8516-0.92578 0.42578-1.2344 2.168-1.5547 2.7969zm16.508-37.816v-0.003906c4.5234 0.29688 9.0625 0.007813 13.512-0.85938 4.1914-1.3359 8.5781-1.9648 12.977-1.8594 13.664 0.074219 27.027-3.9648 40.77-2.9453v0.003906c1.3047-0.14062 2.5859-0.42578 3.8242-0.85938 3.0078-0.53125 6.0156-1.1992 9.0547-1.4297v-0.003907c3.9688-0.34375 7.957-0.43359 11.938-0.26562 3.0898-0.125 6.1016-1.0156 8.7656-2.5859 0.67578-0.375 1.2422-0.91406 1.6523-1.5625-0.75391-1.0273-1.5586-2.5273-2.5859-2.7344v-0.003906c-2.5586-0.53516-5.1836-0.69531-7.7891-0.48047-3.0234 0.28125-6.2148 2.1992-8.918 1.5859-6.0273-0.58594-12.102-0.50781-18.109 0.23438-6.6367-0.078125-13.277 0.16016-19.918 0.27734-3.0859-0.30078-6.1992-0.1875-9.2539 0.34375-9.0117 2.2188-18.316 2.9844-27.566 2.2656-5.25 0.42578-10.418 1.5938-15.344 3.4648-1.1211 0.30078-2.082 1.5938-2.8633 2.625v-0.003906c-0.48828 0.70312-0.68359 1.5625-0.54688 2.4062 0.15234 0.71875 0.90625 1.793 1.4922 1.8555 3.0625 0.33203 6.1602 0.39453 8.9102 0.53125zm208.75 17.609-0.023438-0.8125-1.0586-0.68359c-3.8672-0.070313-7.7383 0.10156-11.586 0.51172-1.1875 0.17188-2.0977 2.2383-3.1367 3.4336 1.2109 0.30078 2.5703 1.1172 3.5898 0.8125 3.543-1.5547 7.3438-2.4297 11.207-2.582zm55.426-1.3984h-0.003906c-0.92969-0.94531-1.9883-1.7539-3.1484-2.3984l-1.8906 1.0469c0.25781 1.0508 0.64062 2.4023 1.4375 2.8711zm-151.41 414.96 2.1875 0.78516 0.86719-0.79688-1.582-1.0977zm-258.7 12.605-0.48438 0.72656 0.78516 0.10156zm455.85-210.43 0.74219 0.48828 0.10156-0.79688zm-36.75-240.81-0.50781 0.76953 0.83594 0.097656zm8.0391 18.734-0.51172 0.76953 0.84375 0.10156zm-8.0117 21.34-0.5 0.75391 0.82422 0.10156z"/>
</svg>
