<?xml version="1.0" encoding="UTF-8"?>
<svg style="transform: scale(2);" width="1200pt" height="1200pt" version="1.1" viewBox="0 0 1200 1200" xmlns="http://www.w3.org/2000/svg">
 <g fill='black'>
  <path d="m703.46 799.59c-4.2539-1.1055-8.6016 1.4219-9.7461 5.668l-2.6445 9.8242c-4.9648 16.488-18.191 29.18-34.867 33.461-16.676 4.2852-34.379-0.46094-46.676-12.512-12.297-12.055-17.398-29.656-13.453-46.418l5.8945-22.219 2.1172-1.5859c3.4844-2.6719 4.1445-7.6602 1.4727-11.145-2.668-3.4883-7.6602-4.1445-11.145-1.4766l-2.1172 1.5859-77.156 0.003907-1.8906-2.3438c-2.6523-3.4844-7.625-4.1641-11.109-1.5117-3.4844 2.6484-4.1602 7.625-1.5117 11.109l1.8906 2.418-13.602 50.633h-0.003906c-4.9648 16.488-18.188 29.18-34.863 33.461-16.68 4.2852-34.383-0.46094-46.68-12.512-12.297-12.055-17.398-29.656-13.449-46.418l6.2734-23.352 1.7383-1.3594c3.4219-2.7539 3.9648-7.7617 1.207-11.184-2.7539-3.4219-7.7617-3.9648-11.184-1.2109l-3.0234 2.418c-16.965-1.2852-32.062-11.25-39.918-26.34-7.8555-15.094-7.3555-33.176 1.3242-47.809 8.6797-14.637 24.305-23.746 41.316-24.094h27.887l1.8906 2.418h-0.003907c2.6523 3.4805 7.625 4.1602 11.109 1.5117 1.7227-1.3359 2.8242-3.3164 3.0508-5.4844 0.22656-2.168-0.4375-4.3359-1.8398-6l-1.8906-2.418 26.301-98.242 3.1758-2.418-0.003906-0.003906c3.4648-2.7031 4.1055-7.6914 1.4375-11.184-1.2188-1.7539-3.1211-2.9062-5.2383-3.1797-2.1172-0.27344-4.25 0.35937-5.8711 1.7422l-3.1758 2.418h-5.0625c-16.902-0.9375-32.137-10.5-40.328-25.312-8.1914-14.816-8.1914-32.801 0-47.613 8.1914-14.816 23.426-24.379 40.328-25.316h34.234l2.8711 4.2305v0.003906c2.5586 3.5547 7.4844 4.4258 11.109 1.9648 1.8828-1.0312 3.2422-2.8164 3.7305-4.9062 0.49219-2.0898 0.066407-4.293-1.1602-6.0547l-3.1758-4.6094 3.1758-12.316c0.64453-2.0273 0.40234-4.2305-0.66016-6.0742-1.0664-1.8398-2.8555-3.1445-4.9336-3.5977-2.0352-0.55469-4.207-0.27734-6.0352 0.76953-1.8281 1.0508-3.1641 2.7852-3.7148 4.8203l-2.6445 9.9766h-32.496c-17.254-0.32031-33.934 6.2266-46.363 18.203-12.43 11.977-19.59 28.398-19.91 45.652-0.32031 17.258 6.2266 33.938 18.203 46.367 11.973 12.426 28.395 19.59 45.652 19.91l-23.879 88.57h-25.77c-22.109 0.13281-42.645 11.469-54.535 30.109-11.891 18.641-13.512 42.039-4.3125 62.145 9.2031 20.102 27.973 34.168 49.855 37.352l-4.082 15.113c-4.5 16.676-2.1914 34.457 6.418 49.43s22.816 25.914 39.492 30.414c16.676 4.4961 34.453 2.1875 49.426-6.4219 14.977-8.6094 25.914-22.812 30.414-39.488l12.922-48.441h67.637l-4.0039 15.113c-5.7031 17.043-4.1016 35.688 4.4219 51.508 8.5273 15.82 23.215 27.414 40.586 32.023 17.371 4.6133 35.875 1.8359 51.125-7.6758 15.25-9.5078 25.887-24.902 29.391-42.527l2.6445-9.8242c0.55469-2.0352 0.27734-4.207-0.77344-6.0352-1.0469-1.832-2.7812-3.168-4.8203-3.7148z"/>
  <path d="m664.69 536.07h-105.8c-4.3828 0.19141-7.7812 3.8945-7.5938 8.2773s3.8906 7.7812 8.2734 7.5938l-23.879 88.57h-4.9141c-4.3828 0-7.9336 3.5547-7.9336 7.9336 0 4.3828 3.5508 7.9375 7.9336 7.9375h105.8c4.3828 0 7.9336-3.5547 7.9336-7.9375 0-4.3789-3.5508-7.9336-7.9336-7.9336h-0.67969l23.805-88.57h4.9883c4.3828 0 7.9336-3.5508 7.9336-7.9336 0-4.3828-3.5508-7.9375-7.9336-7.9375zm-45.344 104.44h-67.184l23.73-88.57h67.336z"/>
  <path d="m804.04 551.94c22.176-0.054688 42.797-11.395 54.715-30.094 11.918-18.699 13.492-42.18 4.1797-62.301-9.3125-20.125-28.234-34.117-50.203-37.133l4.1562-15.113v-0.003906c6.0742-22.461-0.29297-46.461-16.711-62.953-16.418-16.492-40.383-22.973-62.875-17.004-22.492 5.9727-40.09 23.488-46.164 45.953l-13 48.516h-67.332l3.9297-15.113c5.4805-22.297-1.1953-45.828-17.562-61.926-16.371-16.098-40.012-22.379-62.211-16.527-22.199 5.8555-39.672 22.973-45.977 45.051l-2.3438 7.5547c-0.38281 3.8633 2.082 7.4336 5.8281 8.4453 3.7461 1.0117 7.6758-0.83203 9.2852-4.3633l2.1172-7.5586c4.5508-16.98 17.812-30.246 34.793-34.797 16.984-4.5508 35.105 0.30078 47.535 12.734 12.434 12.43 17.289 30.547 12.742 47.531l-5.9688 22.141-3.1758 2.418v0.003907c-3.5078 2.8164-4.0664 7.9414-1.25 11.445 2.8203 3.5078 7.9453 4.0664 11.449 1.25l3.0977-2.418h77.238l1.8125 2.418c1.2852 1.6797 3.1914 2.7812 5.293 3.0508 2.1016 0.26953 4.2227-0.3125 5.8906-1.6172 1.7539-1.2188 2.9062-3.1172 3.1797-5.2344 0.27344-2.1172-0.35938-4.25-1.7422-5.875l-1.8125-2.418 13.527-50.559-0.003906 0.003906c4.5508-16.984 17.816-30.25 34.797-34.801 16.98-4.5508 35.102 0.30469 47.535 12.734 12.43 12.43 17.289 30.551 12.738 47.531l-6.3477 23.277-1.6641 1.4375c-1.7188 1.25-2.8281 3.1719-3.0586 5.2852-0.23047 2.1133 0.44141 4.2266 1.8516 5.8203 1.2539 1.7461 3.1875 2.8711 5.3203 3.1016 2.1367 0.23047 4.2656-0.45703 5.8633-1.8906l3.0234-2.418c16.965 1.2852 32.062 11.25 39.918 26.344 7.8555 15.09 7.3555 33.172-1.3242 47.805-8.6797 14.637-24.305 23.746-41.316 24.094h-27.961l-2.0391-2.1172c-2.5977-3.4336-7.4609-4.1719-10.957-1.6602-1.7539 1.2188-2.9102 3.1172-3.1836 5.2344-0.27344 2.1172 0.36328 4.25 1.7461 5.875l1.8125 2.418-26.223 98.242-2.1172 1.6641h0.003907c-3.4844 2.6523-4.1602 7.6211-1.5117 11.105 2.6797 3.4922 7.6719 4.168 11.184 1.5117l2.1172-1.6641h4.9883l-0.003906 0.003906c13.5-0.75 26.715 4.0898 36.539 13.383 9.8203 9.293 15.387 22.215 15.387 35.738 0 13.52-5.5664 26.445-15.387 35.738-9.8242 9.293-23.039 14.133-36.539 13.383h-34.156l-2.9492-4.1562c-2.5039-3.6094-7.4609-4.5078-11.07-2.0039-3.6094 2.5039-4.5078 7.4609-2.0039 11.07l3.1758 4.5352-2.7188 10.352v0.003906c-0.64453 2.0234-0.40625 4.2305 0.65625 6.0703 1.0664 1.8398 2.8555 3.1484 4.9336 3.6016 0.70313 0.10938 1.4141 0.10938 2.1172 0 3.6016 0.089844 6.7656-2.3789 7.5586-5.8945l2.1172-7.5586h32.27-0.003906c23.246 0.47266 44.98-11.492 57.012-31.387 12.031-19.895 12.535-44.699 1.3203-65.066-11.211-20.367-32.441-33.207-55.688-33.68l23.73-88.645z"/>
  <path d="m563.12 481.96v-12.699c-0.39844-4.1016-3.8477-7.2305-7.9727-7.2305-4.1211 0-7.5703 3.1289-7.9727 7.2305v12.699c0.40234 4.1016 3.8516 7.2305 7.9727 7.2305 4.125 0 7.5742-3.1289 7.9727-7.2305z"/>
  <path d="m695.37 481.96v-12.699c0-4.3828-3.5508-7.9336-7.9336-7.9336s-7.9336 3.5508-7.9336 7.9336v12.699c0 4.3789 3.5508 7.9336 7.9336 7.9336s7.9336-3.5547 7.9336-7.9336z"/>
  <path d="m644.74 486.64c2.8828-3.3164 2.5273-8.3438-0.79297-11.223-3.3164-2.8789-8.3398-2.5234-11.223 0.79297-2.8672 3.2539-6.9961 5.1172-11.336 5.1172-4.3359 0-8.4648-1.8633-11.336-5.1172-2.8789-3.3594-7.9375-3.75-11.297-0.86719-3.3594 2.8789-3.75 7.9375-0.86719 11.297 5.8984 6.7773 14.441 10.668 23.426 10.668s17.527-3.8906 23.426-10.668z"/>
 </g>
</svg>
