<svg xmlns:dc="http://purl.org/dc/elements/1.1/" xmlns:cc="http://creativecommons.org/ns#" xmlns:rdf="http://www.w3.org/1999/02/22-rdf-syntax-ns#" xmlns:svg="http://www.w3.org/2000/svg" xmlns="http://www.w3.org/2000/svg" xmlns:sodipodi="http://sodipodi.sourceforge.net/DTD/sodipodi-0.dtd" xmlns:inkscape="http://www.inkscape.org/namespaces/inkscape" version="1.1" x="0px" y="0px" viewBox="0 0 100 100"><g transform="translate(0,-952.36218)"><path style="text-indent:0;text-transform:none;direction:ltr;block-progression:tb;baseline-shift:baseline;color:#000000;enable-background:accumulate;" d="m 76.440519,978.78855 c -6.231087,-6.2311 -16.396295,-6.2311 -22.627414,0 l -31.81983,31.81975 c -4.34357,4.3435 -4.04778,11.5086 0.353546,15.9099 4.401244,4.4012 11.566325,4.6971 15.909867,0.3535 l 31.819866,-31.81975 c 2.705441,-2.7055 2.705452,-7.194 1e-5,-9.8995 -2.705453,-2.7054 -7.194022,-2.7054 -9.899513,0 l -31.112709,31.11275 a 3.0003,3.0003 0 1 0 4.242634,4.2426 l 31.112738,-31.11265 c 0.428429,-0.4285 0.98574,-0.4285 1.414206,0 0.428467,0.4285 0.42841,0.9857 -1.7e-5,1.4142 l -31.81982,31.81975 c -1.92418,1.9242 -5.166474,1.9046 -7.424622,-0.3535 -2.258232,-2.2583 -2.277743,-5.5005 -0.353566,-7.4247 L 58.05577,983.03115 c 3.954055,-3.9541 10.188057,-3.954 14.142105,0 3.954009,3.954 3.954026,10.188 -3.2e-5,14.1421 l -28.2843,28.28425 a 3.0003,3.0003 0 1 0 4.242642,4.2427 l 28.284297,-28.2844 c 6.231096,-6.23105 6.231085,-16.39625 3.7e-5,-22.62725 z" fill="#000000" fill-opacity="1" stroke="none" marker="none" visibility="visible" display="inline" overflow="visible"></path></g></svg>