<svg xmlns="http://www.w3.org/2000/svg" xmlns:xlink="http://www.w3.org/1999/xlink" xmlns:serif="http://www.serif.com/" viewBox="0 0 32 32" version="1.1" xml:space="preserve" style="" x="0px" y="0px" fill-rule="evenodd" clip-rule="evenodd" stroke-linejoin="round" stroke-miterlimit="2"><path d="M18.516,2.044c-0.043,-0.205 -0.209,-0.361 -0.417,-0.391c-1.392,-0.204 -2.806,-0.204 -4.198,-0c-0.208,0.03 -0.374,0.186 -0.417,0.391l-0.5,2.362c-1.07,0.278 -2.096,0.703 -3.05,1.263c0.001,-0 -2.023,-1.317 -2.023,-1.317c-0.176,-0.114 -0.404,-0.107 -0.571,0.018c-1.129,0.841 -2.129,1.841 -2.97,2.97c-0.125,0.167 -0.132,0.395 -0.018,0.571l1.317,2.024c-0.56,0.953 -0.985,1.979 -1.263,3.049c-0,-0 -2.362,0.5 -2.362,0.5c-0.205,0.043 -0.361,0.209 -0.391,0.417c-0.204,1.392 -0.204,2.806 -0,4.198c0.03,0.208 0.186,0.374 0.391,0.417l2.362,0.5c0.278,1.07 0.703,2.096 1.263,3.05c-0,-0.001 -1.317,2.023 -1.317,2.023c-0.114,0.176 -0.107,0.404 0.018,0.571c0.841,1.129 1.841,2.129 2.97,2.97c0.167,0.125 0.395,0.132 0.571,0.018l2.024,-1.317c0.953,0.56 1.979,0.985 3.049,1.263c-0,0 0.5,2.362 0.5,2.362c0.043,0.205 0.209,0.361 0.417,0.391c1.392,0.204 2.806,0.204 4.198,0c0.208,-0.03 0.374,-0.186 0.417,-0.391l0.5,-2.362c1.07,-0.278 2.096,-0.703 3.05,-1.263c-0.001,0 2.023,1.317 2.023,1.317c0.176,0.114 0.404,0.107 0.571,-0.018c1.129,-0.841 2.129,-1.841 2.97,-2.97c0.125,-0.167 0.132,-0.395 0.018,-0.571l-1.317,-2.024c0.56,-0.953 0.985,-1.979 1.263,-3.049c0,0 2.362,-0.5 2.362,-0.5c0.205,-0.043 0.361,-0.209 0.391,-0.417c0.204,-1.392 0.204,-2.806 0,-4.198c-0.03,-0.208 -0.186,-0.374 -0.391,-0.417l-2.362,-0.5c-0.278,-1.07 -0.703,-2.096 -1.263,-3.05c0,0.001 1.317,-2.023 1.317,-2.023c0.114,-0.176 0.107,-0.404 -0.018,-0.571c-0.841,-1.129 -1.841,-2.129 -2.97,-2.97c-0.167,-0.125 -0.395,-0.132 -0.571,-0.018l-2.024,1.317c-0.953,-0.56 -1.979,-0.985 -3.049,-1.263c0,-0 -0.5,-2.362 -0.5,-2.362Zm-2.516,6.736c-3.985,0 -7.22,3.235 -7.22,7.22c0,3.985 3.235,7.22 7.22,7.22c3.985,-0 7.22,-3.235 7.22,-7.22c-0,-3.985 -3.235,-7.22 -7.22,-7.22Z"></path></svg>