<svg xmlns="http://www.w3.org/2000/svg" xmlns:xlink="http://www.w3.org/1999/xlink" version="1.1" x="0px" y="0px" viewBox="0 0 100 100" style="enable-background:new 0 0 100 100;" xml:space="preserve"><g><path d="M76,72.7c-0.3-0.8-1.1-1.3-1.9-1.3h-7V36c0-1.1-0.9-2.1-2-2.1H54.5c-1.1,0-2,0.9-2,2.1v35.4h-7c-0.8,0-1.6,0.5-1.9,1.3   c-0.3,0.8-0.1,1.6,0.4,2.2l14.4,14.5c0.8,0.8,2.1,0.8,2.9,0l14.4-14.5C76.2,74.3,76.3,73.4,76,72.7z"></path><path d="M47.6,64V28.6h7c0.8,0,1.6-0.5,1.9-1.3c0.3-0.8,0.1-1.6-0.4-2.2L41.7,10.6c-0.8-0.8-2.1-0.8-2.9,0L24.4,25.1   c-0.6,0.6-0.7,1.5-0.4,2.2c0.3,0.8,1.1,1.3,1.9,1.3h7V64c0,1.1,0.9,2.1,2,2.1h10.6C46.6,66.1,47.6,65.1,47.6,64z"></path></g></svg>